<mxfile host="Electron" modified="2023-08-23T02:45:33.126Z" agent="Mozilla/5.0 (Windows NT 10.0; Win64; x64) AppleWebKit/537.36 (KHTML, like Gecko) draw.io/21.6.8 Chrome/114.0.5735.289 Electron/25.5.0 Safari/537.36" etag="MN2AWcTEdWoN0YaGqASO" version="21.6.8" type="device">
  <diagram name="Page-1" id="XH68atsUB2IidRuCDRoG">
    <mxGraphModel dx="639" dy="370" grid="1" gridSize="10" guides="1" tooltips="1" connect="1" arrows="1" fold="1" page="1" pageScale="1" pageWidth="827" pageHeight="1169" math="0" shadow="0">
      <root>
        <mxCell id="0" />
        <mxCell id="1" parent="0" />
        <mxCell id="Ls0EMRGHmd7Kbh4M1iCq-13" value="" style="rounded=0;whiteSpace=wrap;html=1;" parent="1" vertex="1">
          <mxGeometry x="170" y="360" width="520" height="340" as="geometry" />
        </mxCell>
        <mxCell id="Ls0EMRGHmd7Kbh4M1iCq-1" value="user" style="shape=umlActor;verticalLabelPosition=bottom;verticalAlign=top;html=1;outlineConnect=0;" parent="1" vertex="1">
          <mxGeometry x="80" y="438" width="30" height="60" as="geometry" />
        </mxCell>
        <mxCell id="Ls0EMRGHmd7Kbh4M1iCq-5" value="dang nhap" style="ellipse;whiteSpace=wrap;html=1;" parent="1" vertex="1">
          <mxGeometry x="300" y="420" width="120" height="70" as="geometry" />
        </mxCell>
        <mxCell id="Ls0EMRGHmd7Kbh4M1iCq-6" value="dang nhap thanh cong" style="ellipse;whiteSpace=wrap;html=1;" parent="1" vertex="1">
          <mxGeometry x="210" y="552" width="120" height="65" as="geometry" />
        </mxCell>
        <mxCell id="Ls0EMRGHmd7Kbh4M1iCq-12" value="" style="endArrow=classic;html=1;rounded=0;exitX=1;exitY=0.3333333333333333;exitDx=0;exitDy=0;exitPerimeter=0;entryX=0;entryY=0.5;entryDx=0;entryDy=0;" parent="1" source="Ls0EMRGHmd7Kbh4M1iCq-1" target="Ls0EMRGHmd7Kbh4M1iCq-5" edge="1">
          <mxGeometry width="50" height="50" relative="1" as="geometry">
            <mxPoint x="380" y="540" as="sourcePoint" />
            <mxPoint x="430" y="490" as="targetPoint" />
          </mxGeometry>
        </mxCell>
        <mxCell id="Ls0EMRGHmd7Kbh4M1iCq-15" value="show error" style="ellipse;whiteSpace=wrap;html=1;" parent="1" vertex="1">
          <mxGeometry x="430" y="552" width="120" height="65" as="geometry" />
        </mxCell>
        <mxCell id="Ls0EMRGHmd7Kbh4M1iCq-20" value="login" style="text;html=1;align=center;verticalAlign=middle;resizable=0;points=[];autosize=1;strokeColor=none;fillColor=none;" parent="1" vertex="1">
          <mxGeometry x="170" y="360" width="50" height="30" as="geometry" />
        </mxCell>
        <mxCell id="Ls0EMRGHmd7Kbh4M1iCq-22" value="&amp;lt;&amp;lt;extend&amp;gt;&amp;gt;" style="html=1;verticalAlign=bottom;labelBackgroundColor=none;endArrow=open;endFill=0;dashed=1;rounded=0;exitX=0.379;exitY=0.006;exitDx=0;exitDy=0;exitPerimeter=0;entryX=0.798;entryY=0.938;entryDx=0;entryDy=0;entryPerimeter=0;" parent="1" source="Ls0EMRGHmd7Kbh4M1iCq-15" target="Ls0EMRGHmd7Kbh4M1iCq-5" edge="1">
          <mxGeometry width="160" relative="1" as="geometry">
            <mxPoint x="180" y="630" as="sourcePoint" />
            <mxPoint x="340" y="630" as="targetPoint" />
          </mxGeometry>
        </mxCell>
        <mxCell id="Ls0EMRGHmd7Kbh4M1iCq-23" value="&amp;lt;&amp;lt;include&amp;gt;&amp;gt;" style="html=1;verticalAlign=bottom;labelBackgroundColor=none;endArrow=open;endFill=0;dashed=1;rounded=0;exitX=0.441;exitY=1.01;exitDx=0;exitDy=0;exitPerimeter=0;entryX=0.5;entryY=0;entryDx=0;entryDy=0;" parent="1" source="Ls0EMRGHmd7Kbh4M1iCq-5" target="Ls0EMRGHmd7Kbh4M1iCq-6" edge="1">
          <mxGeometry width="160" relative="1" as="geometry">
            <mxPoint x="180" y="630" as="sourcePoint" />
            <mxPoint x="340" y="630" as="targetPoint" />
          </mxGeometry>
        </mxCell>
        <mxCell id="Ls0EMRGHmd7Kbh4M1iCq-24" value="nhap ten dang nhap,&lt;br&gt;nhap mat khau" style="shape=note;whiteSpace=wrap;html=1;backgroundOutline=1;darkOpacity=0.05;" parent="1" vertex="1">
          <mxGeometry x="460" y="443" width="170" height="50" as="geometry" />
        </mxCell>
        <mxCell id="Ls0EMRGHmd7Kbh4M1iCq-25" value="" style="endArrow=none;dashed=1;html=1;rounded=0;exitX=1;exitY=0.5;exitDx=0;exitDy=0;entryX=1;entryY=0.5;entryDx=0;entryDy=0;" parent="1" target="Ls0EMRGHmd7Kbh4M1iCq-5" edge="1">
          <mxGeometry width="50" height="50" relative="1" as="geometry">
            <mxPoint x="461.88" y="485" as="sourcePoint" />
            <mxPoint x="450.005" y="390" as="targetPoint" />
          </mxGeometry>
        </mxCell>
      </root>
    </mxGraphModel>
  </diagram>
</mxfile>
